<?xml version="1.0" encoding="UTF-8" standalone="no"?>
<!DOCTYPE svg PUBLIC "-//W3C//DTD SVG 1.1//EN" "http://www.w3.org/Graphics/SVG/1.1/DTD/svg11.dtd">
<svg version="1.1" xmlns="http://www.w3.org/2000/svg" xmlns:xlink="http://www.w3.org/1999/xlink" preserveAspectRatio="xMidYMid meet" viewBox="0 0 128 128" width="128" height="128"><defs><path d="M117.13 7C119.27 7 121 8.73 121 10.87C121 32.9 121 95.1 121 117.13C121 119.27 119.27 121 117.13 121C95.1 121 32.9 121 10.87 121C8.73 121 7 119.27 7 117.13C7 95.1 7 32.9 7 10.87C7 8.73 8.73 7 10.87 7C32.9 7 95.1 7 117.13 7Z" id="aoky2Vcd8"></path><path d="M61.51 54.97L26.48 90L18 81.51L53.03 46.48L61.51 54.97Z" id="fFqHiFPph"></path><path d="M61.09 96L109.09 96L109.09 108L61.09 108L61.09 96Z" id="b4rTnSVWnw"></path><path d="M25.81 19.33L60.84 54.35L52.36 62.84L17.32 27.81L25.81 19.33Z" id="aEIIludFc"></path></defs><g><g><g><use xlink:href="#aoky2Vcd8" opacity="1" fill="#0067ff" fill-opacity="1"></use><g><use xlink:href="#aoky2Vcd8" opacity="1" fill-opacity="0" stroke="#000000" stroke-width="6" stroke-opacity="1"></use></g></g><g><use xlink:href="#fFqHiFPph" opacity="1" fill="#ffffff" fill-opacity="1"></use></g><g><use xlink:href="#b4rTnSVWnw" opacity="1" fill="#ffffff" fill-opacity="1"></use></g><g><use xlink:href="#aEIIludFc" opacity="1" fill="#ffffff" fill-opacity="1"></use></g></g></g></svg>